# xmcd
#
# Track frame offsets:
#	150
#	11382
#	23197
#	39077
#	51137
#	71381
#	85805
#	99102
#	115114
#	132857
#	145987
#	166851
#	184464
#
# Disc length: 2633 seconds
# Revision: 0
# Processed by: cddbd v1.5.2PL0 Copyright (c) Steve Scherf et al.
# Submitted via: dBpowerAMP V12.0
#
DISCID=9b0a470d
DTITLE=The Roys - Gypsy Runaway Train
DYEAR=2013
DGENRE=Country
TTITLE0=You Can Count On My Love
TTITLE1=Blue Moon Of Kentucky
TTITLE2=Another Minute
TTITLE3=Born with A Hammer In My Hand
TTITLE4=I Wonder Where You Are Tonight
TTITLE5=He Took Your Place
TTITLE6=Workin' On It
TTITLE7=Enough For Me
TTITLE8=Ramblin' Fever
TTITLE9=What Gives You The Right
TTITLE10=Those Memories Of You
TTITLE11=Half Of Me
TTITLE12=Gypsy Runaway Train
EXTD=
EXTT0=
EXTT1=
EXTT2=
EXTT3=
EXTT4=
EXTT5=
EXTT6=
EXTT7=
EXTT8=
EXTT9=
EXTT10=
EXTT11=
EXTT12=
PLAYORDER=
